<?xml version="1.0" standalone="no"?>
<!DOCTYPE svg PUBLIC "-//W3C//DTD SVG 20010904//EN"
 "http://www.w3.org/TR/2001/REC-SVG-20010904/DTD/svg10.dtd">
<svg version="1.0" xmlns="http://www.w3.org/2000/svg"
 width="1274.000000pt" height="1274.000000pt" viewBox="0 0 1274.000000 1274.000000"
 preserveAspectRatio="xMidYMid meet">
<metadata>
Created by potrace 1.14, written by Peter Selinger 2001-2017
</metadata>
<g transform="translate(0.000000,1274.000000) scale(0.100000,-0.100000)"
fill="#000000" stroke="none">
<path d="M6218 12220 c6 -8 12 -18 12 -23 0 -5 -6 -5 -12 1 -19 15 -77 22 -84
10 -4 -7 -2 -8 4 -4 7 4 12 2 12 -3 0 -14 -17 -14 -25 -1 -4 6 -12 7 -18 3
-20 -12 -37 -12 -37 0 0 7 -5 5 -10 -3 -8 -12 -10 -12 -10 5 0 12 -3 16 -8 9
-4 -7 -26 -11 -50 -10 -24 1 -46 -2 -48 -6 -3 -5 -2 -7 3 -6 4 2 9 0 11 -4 5
-17 1 -20 -13 -8 -9 7 -18 10 -22 7 -3 -4 -13 -1 -21 6 -13 9 -14 9 -8 0 4 -7
2 -13 -3 -13 -6 0 -11 6 -12 13 0 6 -4 3 -9 -8 -5 -11 -9 -15 -9 -9 -1 6 -8
11 -16 11 -11 0 -12 -4 -4 -13 8 -9 5 -11 -10 -7 -12 3 -21 10 -22 17 0 6 -4
2 -9 -9 -8 -18 -9 -18 -9 -2 -1 10 -6 15 -11 12 -6 -4 -8 -11 -5 -16 8 -12
-28 2 -37 15 -4 6 -8 1 -8 -12 0 -21 -2 -22 -15 -8 -15 14 -45 12 -45 -3 0 -4
-9 -7 -20 -8 -12 -1 -18 3 -14 9 4 5 -6 2 -22 -8 -29 -18 -29 -18 -15 1 14 19
14 19 -4 3 -16 -15 -21 -15 -49 -2 l-31 15 25 -20 c14 -11 21 -23 17 -27 -4
-4 -7 -2 -7 6 0 9 -9 11 -30 6 -23 -4 -29 -2 -25 7 4 6 0 5 -7 -5 -10 -12 -19
-13 -31 -7 -11 7 -17 6 -17 -1 0 -5 -5 -10 -11 -10 -5 0 -8 4 -5 8 3 5 -1 9
-9 9 -8 0 -12 -4 -10 -8 3 -4 -2 -9 -9 -12 -8 -3 -17 -1 -20 6 -3 9 -5 9 -5 0
-1 -7 -13 -13 -27 -13 -14 0 -23 -4 -19 -10 3 -5 1 -10 -4 -10 -6 0 -11 6 -11
13 0 8 -4 7 -10 -3 -9 -13 -10 -13 -10 0 0 10 -3 11 -8 4 -4 -6 -18 -14 -32
-18 -17 -5 -21 -4 -11 2 8 6 9 12 3 16 -5 3 -13 -1 -16 -10 -4 -11 -15 -14
-36 -10 -16 2 -33 -1 -36 -6 -4 -7 -2 -8 4 -4 8 5 10 1 5 -10 -5 -14 -8 -13
-19 7 -11 20 -13 21 -14 5 0 -16 -2 -17 -17 -5 -14 12 -15 12 -9 0 7 -10 3
-12 -15 -6 -24 7 -24 7 -4 -9 19 -15 19 -16 -7 -6 -20 7 -28 6 -28 -2 0 -6
-10 -3 -22 8 -15 13 -18 14 -10 3 10 -14 10 -18 -3 -23 -9 -3 -14 -2 -11 2 3
5 -1 9 -9 9 -8 0 -12 -4 -10 -8 3 -4 -2 -10 -11 -13 -8 -3 -12 -2 -9 4 3 6 -1
7 -10 4 -13 -5 -13 -9 -3 -23 10 -13 9 -13 -8 2 -24 20 -34 22 -34 6 0 -5 5
-7 12 -3 7 4 8 3 4 -4 -5 -8 -15 -8 -32 -1 -21 7 -25 7 -21 -4 3 -8 -1 -14 -9
-14 -7 0 -11 3 -9 7 2 4 -2 7 -10 7 -18 0 -19 -9 -2 -27 6 -8 2 -6 -10 4 -21
17 -23 17 -23 3 0 -20 -11 -22 -28 -5 -9 9 -13 7 -18 -5 -3 -9 -10 -17 -16
-17 -5 0 -6 5 -2 11 5 8 1 8 -13 0 -11 -6 -23 -7 -27 -4 -4 4 -9 -3 -13 -15
-3 -12 -9 -19 -14 -16 -5 3 -6 10 -3 16 5 7 2 8 -5 4 -7 -5 -10 -15 -6 -24 5
-13 3 -13 -14 2 -18 17 -20 17 -30 -1 -6 -10 -11 -14 -11 -9 0 5 -10 1 -22
-10 -16 -14 -19 -14 -10 -2 12 14 10 16 -8 11 -12 -3 -19 -11 -16 -19 3 -9 0
-11 -11 -7 -12 5 -14 3 -8 -7 5 -8 4 -11 -3 -6 -6 4 -8 14 -5 24 5 14 3 14 -9
-2 -10 -13 -22 -17 -37 -13 -18 4 -20 3 -10 -9 10 -12 9 -13 -6 -8 -14 6 -16
4 -11 -7 4 -8 1 -6 -7 4 -13 16 -15 16 -21 2 -3 -9 -10 -13 -16 -10 -6 3 -13
0 -16 -8 -3 -9 -13 -13 -26 -9 -16 4 -19 2 -13 -8 5 -8 4 -11 -2 -7 -6 4 -16
0 -23 -8 -10 -12 -16 -13 -28 -3 -13 11 -14 11 -7 -1 6 -11 1 -13 -23 -9 -28
4 -30 3 -20 -16 l11 -21 -23 20 c-13 11 -20 14 -16 8 4 -7 2 -21 -4 -30 -11
-17 -11 -17 -6 1 5 15 4 17 -8 7 -11 -9 -15 -9 -19 1 -4 9 -6 8 -6 -3 -1 -25
-25 -41 -39 -27 -9 9 -12 7 -12 -7 0 -17 -2 -18 -10 -5 -8 12 -10 12 -10 1 0
-11 -3 -11 -15 -1 -13 11 -14 10 -10 -3 4 -8 1 -18 -6 -23 -8 -4 -10 -3 -5 4
4 7 2 12 -3 12 -6 0 -11 -6 -11 -12 0 -9 -3 -8 -10 2 -5 8 -12 11 -16 7 -4 -3
-1 -14 7 -23 13 -16 12 -16 -8 -5 -20 10 -23 9 -23 -5 0 -14 -2 -15 -17 -3
-14 12 -16 12 -8 0 6 -11 4 -13 -9 -8 -10 4 -15 3 -11 -3 3 -6 -3 -10 -15 -10
-12 0 -19 -4 -16 -9 4 -5 -3 -7 -14 -4 -13 3 -22 -1 -26 -12 -5 -13 -9 -14
-15 -3 -7 10 -9 8 -9 -6 0 -13 -5 -17 -20 -13 -22 6 -28 -8 -7 -17 6 -3 -2 -3
-20 0 -27 3 -31 1 -26 -12 5 -14 3 -15 -15 -5 -29 16 -39 14 -16 -3 18 -14 18
-14 -8 -12 -28 3 -38 -8 -15 -17 8 -4 9 -6 0 -6 -6 -1 -19 6 -28 15 -15 15
-15 14 -10 -12 4 -16 3 -24 -2 -19 -11 14 -36 18 -28 5 3 -5 -1 -10 -9 -10 -8
0 -25 -10 -37 -22 -12 -13 -19 -17 -14 -10 6 11 3 11 -13 1 -12 -7 -18 -18
-14 -24 3 -5 -3 -3 -13 5 -13 10 -16 11 -11 2 5 -9 1 -15 -13 -19 -12 -3 -18
-10 -14 -17 4 -8 2 -7 -7 1 -14 13 -40 7 -40 -9 0 -6 7 -4 17 3 15 13 15 12 2
-8 -7 -12 -16 -18 -19 -13 -7 11 -34 8 -52 -8 -8 -6 -17 -9 -21 -6 -3 3 -4 -5
-1 -18 2 -12 1 -17 -2 -9 -5 11 -10 8 -21 -10 -8 -13 -12 -16 -9 -7 3 12 1 15
-9 11 -8 -3 -12 -10 -8 -16 4 -6 -2 -8 -16 -4 -18 4 -20 3 -11 -8 10 -12 8
-13 -10 -10 -15 3 -20 0 -17 -9 4 -10 -3 -13 -24 -11 -24 2 -27 0 -18 -11 10
-12 8 -13 -6 -8 -14 6 -16 4 -10 -6 6 -10 3 -12 -13 -8 -12 4 -25 1 -29 -4 -3
-7 -1 -8 5 -4 7 4 12 1 12 -9 0 -13 -4 -14 -22 -4 -18 10 -20 9 -15 -5 4 -9 3
-15 -1 -15 -4 1 -16 1 -27 0 -17 -1 -18 -3 -5 -11 13 -8 12 -10 -5 -11 -11 -1
-24 -1 -28 0 -5 1 -6 -3 -2 -8 7 -12 -24 -29 -47 -26 -15 3 -16 0 -7 -16 5
-11 6 -19 2 -18 -20 3 -33 -2 -31 -13 2 -7 -5 -12 -14 -10 -23 4 -99 -48 -91
-61 4 -6 0 -8 -10 -4 -11 4 -17 1 -17 -8 0 -7 -5 -17 -12 -21 -7 -4 -8 -3 -4
4 5 8 2 10 -8 6 -9 -3 -14 -10 -11 -14 3 -5 0 -12 -6 -16 -6 -3 -15 0 -20 7
-7 11 -9 10 -9 -3 0 -10 -4 -18 -10 -18 -5 0 -10 -5 -10 -11 0 -5 6 -7 13 -3
9 5 9 3 -1 -7 -11 -12 -14 -12 -23 1 -9 12 -10 11 -6 -6 3 -13 -1 -21 -9 -21
-7 0 -11 5 -8 11 3 6 -1 2 -10 -8 -8 -10 -12 -24 -9 -30 4 -6 -2 -4 -12 4 -17
14 -18 13 -12 -2 4 -12 2 -18 -8 -18 -8 0 -15 -4 -15 -9 0 -5 -11 -12 -25 -15
-14 -4 -25 -11 -25 -17 0 -6 5 -7 10 -4 6 3 10 1 10 -4 0 -13 -12 -14 -25 -3
-6 4 -9 6 -8 4 3 -7 -37 -42 -48 -42 -5 0 -8 -3 -5 -8 2 -4 -3 -16 -11 -27
-15 -19 -15 -19 -8 5 l7 25 -22 -28 c-12 -15 -27 -24 -33 -20 -7 4 -5 -2 3
-12 9 -11 10 -16 2 -11 -7 4 -12 2 -12 -6 0 -9 -3 -9 -10 2 -8 13 -10 12 -10
-3 0 -12 -4 -16 -13 -11 -9 6 -9 4 1 -8 10 -13 10 -18 1 -24 -7 -4 -9 -3 -6 3
4 7 -3 10 -17 9 -13 0 -22 -4 -20 -8 2 -3 0 -17 -5 -30 -6 -12 -10 -17 -10
-10 -1 7 -6 10 -11 7 -6 -4 -8 -11 -4 -16 3 -6 -2 -9 -12 -7 -11 2 -18 -2 -17
-9 2 -7 -2 -13 -8 -13 -5 0 -7 -5 -3 -11 4 -8 -1 -9 -17 -5 -13 3 -18 3 -11 0
16 -7 16 -25 0 -21 -7 1 -12 -4 -10 -12 2 -9 -3 -11 -14 -7 -14 5 -15 4 -5 -8
9 -11 9 -16 0 -22 -7 -4 -9 -3 -6 3 4 6 0 13 -7 16 -10 4 -14 0 -11 -12 3 -19
-50 -80 -60 -69 -3 3 6 13 20 22 14 9 25 20 25 25 0 5 -13 -3 -30 -17 -22 -20
-27 -29 -18 -39 8 -11 7 -12 -7 -7 -13 5 -16 4 -11 -4 10 -16 -6 -15 -24 1 -8
6 -6 2 5 -11 16 -20 17 -22 2 -16 -10 3 -17 1 -17 -6 0 -6 -4 -9 -9 -6 -4 3
-8 -4 -7 -16 0 -12 -6 -23 -14 -25 -12 -4 -12 -3 -2 5 11 7 10 11 -4 16 -10 4
-15 4 -11 0 4 -4 -3 -19 -15 -33 -13 -14 -16 -20 -6 -13 11 9 18 10 23 2 4 -6
3 -10 -2 -9 -16 4 -43 -13 -36 -24 3 -6 1 -7 -5 -3 -8 4 -12 0 -12 -11 0 -15
-2 -16 -10 -3 -8 13 -10 12 -10 -3 0 -12 -4 -16 -13 -11 -9 6 -9 4 1 -8 10
-13 10 -18 1 -24 -7 -4 -9 -3 -6 3 4 6 0 13 -7 16 -10 4 -13 0 -11 -14 4 -18
-4 -23 -35 -20 -13 2 -13 1 0 -9 11 -9 12 -13 2 -17 -6 -2 -10 -9 -6 -14 3 -5
0 -9 -6 -9 -6 0 -25 -13 -42 -30 -21 -21 -24 -28 -11 -25 10 3 3 -2 -15 -11
-17 -10 -32 -22 -32 -27 0 -6 5 -6 13 -1 7 5 1 -1 -13 -14 -14 -12 -24 -27
-22 -33 2 -7 -4 -9 -14 -5 -14 5 -15 4 -5 -8 9 -11 9 -16 0 -22 -8 -5 -10 -3
-4 7 7 12 5 12 -6 1 -12 -11 -12 -14 1 -22 8 -5 10 -10 5 -10 -6 0 -17 6 -24
13 -12 10 -13 9 -7 -7 5 -13 2 -17 -9 -12 -8 3 -14 2 -14 -2 4 -26 -4 -44 -23
-52 -14 -5 -17 -9 -8 -10 8 0 0 -8 -18 -17 -18 -8 -30 -18 -28 -21 3 -3 12 1
21 8 13 11 14 10 9 -4 -3 -9 -10 -16 -16 -16 -5 0 -6 -4 -3 -10 5 -9 -16 -15
-38 -11 -5 1 -6 -3 -3 -7 3 -5 -3 -17 -14 -27 -10 -9 -16 -23 -13 -31 6 -17
-13 -19 -21 -1 -3 6 -3 1 0 -12 4 -17 3 -21 -6 -16 -9 6 -9 3 -1 -13 10 -18 9
-20 -9 -17 -18 3 -19 1 -8 -18 10 -19 9 -21 -4 -9 -13 10 -18 10 -24 1 -4 -8
-3 -9 4 -5 7 4 12 2 12 -3 0 -6 -5 -11 -11 -11 -5 0 -8 -4 -5 -9 3 -5 -2 -15
-12 -22 -15 -13 -16 -12 -4 3 9 11 10 18 2 23 -6 4 -10 3 -9 -2 3 -13 -27 -75
-35 -73 -4 1 -11 -2 -14 -6 -4 -4 -1 -4 6 0 6 4 12 2 12 -3 0 -6 -4 -11 -9
-11 -5 0 -12 -12 -16 -27 -5 -22 -8 -24 -17 -12 -7 11 -9 9 -5 -8 3 -13 1 -26
-4 -29 -6 -3 -5 -12 3 -22 12 -15 11 -16 -5 -3 -13 11 -15 17 -6 28 10 11 8
12 -5 7 -10 -4 -14 -13 -11 -24 4 -12 -4 -25 -22 -40 -15 -12 -22 -18 -14 -14
11 5 13 3 8 -10 -4 -10 -7 -20 -7 -22 0 -2 -7 -4 -15 -4 -14 0 -16 -5 -19 -40
-1 -9 -11 -15 -25 -14 l-23 1 23 -19 c19 -14 20 -17 5 -11 -15 5 -18 3 -13
-10 3 -9 -1 -21 -11 -29 -16 -12 -16 -11 -2 7 14 18 13 19 -1 8 -9 -7 -18 -12
-20 -10 -2 1 -1 -2 3 -7 13 -16 9 -28 -7 -22 -13 4 -13 2 -5 -14 14 -27 12
-34 -5 -20 -17 14 -21 0 -4 -17 9 -9 6 -11 -12 -7 -19 5 -21 4 -9 -5 8 -6 10
-11 4 -11 -11 0 -29 -45 -26 -62 1 -4 -4 -5 -12 -2 -20 8 -30 -14 -16 -31 11
-14 7 -19 -12 -16 -4 0 -12 -8 -18 -19 -8 -15 -8 -20 1 -20 7 0 1 -10 -13 -23
-13 -12 -23 -28 -20 -35 2 -7 -1 -12 -7 -12 -6 0 -10 -3 -10 -7 4 -22 -2 -33
-13 -27 -8 5 -9 2 -5 -9 3 -9 2 -19 -4 -23 -6 -3 -8 -13 -5 -21 3 -8 -1 -24
-9 -37 -8 -12 -12 -26 -8 -30 4 -4 -1 -4 -11 0 -14 5 -17 4 -12 -4 4 -7 2 -12
-3 -12 -6 0 -11 -5 -11 -11 0 -5 6 -7 13 -3 9 6 9 5 0 -8 -7 -8 -10 -18 -6
-22 4 -4 -1 -4 -11 0 -16 6 -18 3 -14 -28 3 -28 1 -35 -11 -30 -11 4 -13 0 -9
-16 4 -12 3 -20 -2 -17 -4 2 -15 -4 -25 -15 -10 -11 -14 -20 -10 -20 5 0 4 -5
-2 -11 -14 -14 -5 -42 10 -32 6 3 7 1 3 -6 -4 -6 -12 -8 -18 -5 -7 5 -9 1 -5
-9 4 -11 -1 -20 -14 -27 -11 -6 -17 -15 -14 -20 3 -5 -3 -14 -12 -20 -15 -9
-14 -10 7 -5 l25 6 -25 -21 c-14 -12 -19 -18 -11 -14 9 5 12 3 7 -4 -4 -7 -15
-12 -24 -12 -14 0 -15 -2 -2 -9 8 -6 19 -7 25 -3 5 3 4 -2 -4 -12 -8 -9 -21
-14 -30 -11 -12 5 -11 2 2 -13 16 -18 16 -20 2 -26 -9 -3 -22 -3 -28 0 -7 3
-5 0 4 -8 16 -13 15 -38 -2 -38 -6 0 -7 5 -3 12 4 7 3 8 -5 4 -9 -6 -9 -11 -1
-21 8 -9 8 -15 0 -20 -5 -3 -10 -12 -10 -18 0 -7 4 -6 10 3 5 8 10 11 10 5 0
-5 -5 -17 -10 -25 -9 -13 -11 -13 -20 0 -5 8 -10 10 -10 4 0 -6 10 -18 23 -27
l22 -15 -28 3 c-15 2 -27 -1 -27 -6 0 -5 8 -9 18 -10 13 0 12 -2 -5 -9 -24
-10 -30 -25 -14 -34 5 -3 2 -21 -7 -40 -9 -19 -20 -32 -25 -29 -6 3 -7 1 -3
-5 3 -6 2 -13 -3 -17 -14 -8 -1 -36 13 -28 6 3 3 -3 -8 -15 -10 -12 -16 -28
-13 -36 4 -9 2 -18 -4 -21 -5 -4 -7 -10 -4 -15 3 -5 1 -11 -4 -15 -5 -3 -8
-14 -6 -25 2 -11 -1 -22 -6 -25 -5 -4 -7 -10 -4 -15 3 -5 0 -12 -6 -16 -7 -4
-9 -3 -5 4 3 6 1 14 -6 18 -7 4 -10 4 -6 -1 4 -4 2 -15 -5 -23 -6 -9 -7 -13
-2 -10 6 4 17 -3 25 -15 12 -20 12 -21 -3 -8 -12 9 -17 10 -17 2 0 -7 -4 -10
-9 -6 -5 3 -12 1 -16 -4 -3 -6 3 -8 13 -6 11 2 19 -3 19 -10 0 -8 -4 -12 -8
-10 -4 3 -9 -2 -13 -10 -3 -8 0 -15 7 -16 7 0 3 -4 -8 -9 -11 -5 -15 -9 -9 -9
7 -1 14 -8 18 -16 5 -13 2 -14 -15 -4 -19 10 -20 9 -9 -11 6 -11 16 -17 22
-14 7 4 8 3 4 -4 -4 -6 -13 -9 -21 -5 -11 4 -13 0 -8 -13 3 -11 11 -22 15 -25
5 -3 -4 -12 -21 -18 -26 -11 -28 -15 -18 -32 10 -16 9 -21 -3 -29 -10 -6 -11
-10 -2 -10 6 0 12 -5 12 -11 0 -5 -6 -7 -12 -3 -8 5 -7 0 2 -11 9 -11 10 -16
3 -11 -7 4 -13 3 -13 -3 0 -5 5 -13 10 -16 8 -5 7 -11 0 -20 -7 -8 -9 -19 -5
-24 3 -6 0 -9 -7 -6 -9 4 -14 -2 -15 -15 -1 -11 2 -18 6 -16 4 3 8 -1 8 -9 0
-8 -5 -11 -10 -8 -5 3 -7 0 -5 -8 3 -8 -2 -20 -11 -27 -9 -8 -10 -11 -3 -7 13
7 17 -7 5 -19 -11 -10 -12 -37 -2 -30 5 3 9 1 9 -3 0 -5 -9 -14 -20 -20 -17
-11 -18 -15 -5 -40 9 -16 11 -31 6 -36 -5 -5 -7 -16 -4 -25 5 -11 3 -13 -7 -7
-10 6 -11 4 -4 -6 12 -20 14 -40 3 -33 -5 3 -7 10 -4 15 3 5 -1 6 -10 2 -9 -3
-13 -9 -8 -12 19 -14 33 -50 21 -57 -7 -4 -8 -3 -4 4 4 7 2 12 -3 12 -6 0 -10
-15 -9 -32 2 -22 -1 -32 -9 -31 -7 2 -10 -4 -7 -12 4 -8 10 -15 15 -15 5 0 9
-5 9 -11 0 -6 -7 -8 -17 -5 -15 6 -14 4 2 -14 16 -18 17 -20 2 -14 -21 8 -22
0 -1 -20 14 -15 14 -16 0 -16 -9 0 -16 5 -16 12 0 6 -3 8 -7 5 -3 -4 4 -19 18
-34 13 -15 16 -21 6 -14 -19 15 -22 9 -7 -19 8 -16 7 -18 -4 -14 -15 6 -17
-18 -3 -32 10 -11 8 -24 -4 -24 -5 0 -7 5 -3 12 4 6 3 8 -4 4 -7 -4 -8 -17 -2
-35 7 -25 6 -29 -8 -25 -15 5 -14 4 1 -6 18 -11 25 -36 7 -25 -7 4 -7 -3 0
-19 7 -19 6 -26 -3 -27 -6 0 -3 -4 8 -9 18 -8 18 -9 -5 -10 -14 -1 -19 -4 -12
-7 6 -2 12 -14 12 -24 0 -11 -4 -18 -8 -15 -5 3 -9 -1 -9 -9 0 -8 4 -12 8 -10
4 3 9 -2 13 -10 3 -8 0 -17 -6 -21 -7 -5 -8 -2 -3 6 5 9 4 11 -4 6 -9 -6 -9
-11 0 -23 10 -11 10 -16 0 -22 -10 -6 -9 -10 4 -15 18 -6 12 -26 -8 -26 -7 0
-6 4 3 10 9 6 10 10 3 10 -20 0 -25 -20 -7 -27 16 -6 16 -7 -2 -14 -19 -7 -19
-8 0 -8 19 -1 19 -1 0 -22 -10 -11 -14 -20 -9 -19 30 6 38 -1 19 -15 -16 -13
-17 -16 -4 -25 13 -9 13 -10 0 -10 -11 -1 -11 -3 3 -11 18 -10 18 -12 1 -31
-16 -16 -16 -21 -4 -28 13 -8 13 -10 0 -10 -9 0 -11 -3 -5 -8 13 -8 13 -22 1
-41 -6 -9 -5 -12 2 -7 6 3 14 1 18 -5 4 -7 3 -9 -4 -5 -6 3 -13 2 -17 -4 -3
-5 0 -10 7 -10 8 0 9 -3 3 -8 -17 -12 -17 -35 0 -29 13 6 13 3 2 -16 -7 -12
-12 -29 -11 -37 1 -8 2 -21 3 -28 0 -7 5 -11 9 -8 4 2 6 -11 4 -30 -3 -20 -8
-31 -15 -27 -6 3 -7 1 -3 -6 4 -6 11 -9 16 -6 5 3 11 1 14 -4 4 -5 1 -13 -5
-17 -8 -5 -9 -3 -4 7 6 11 5 11 -5 2 -11 -10 -10 -17 5 -39 9 -14 12 -23 6
-20 -7 5 -11 -1 -11 -14 0 -12 4 -19 8 -16 5 3 9 0 9 -7 0 -7 4 -21 8 -32 4
-12 3 -15 -2 -8 -6 8 -13 7 -28 -4 -19 -14 -19 -14 -1 -11 10 2 21 -3 24 -11
2 -8 0 -11 -6 -7 -6 4 -8 -2 -5 -15 5 -16 8 -18 15 -7 6 9 7 5 3 -11 -6 -18
-4 -22 6 -15 12 6 12 5 0 -9 -7 -9 -10 -17 -5 -17 5 0 2 -5 -6 -10 -13 -8 -12
-10 3 -10 10 0 15 -5 12 -10 -4 -6 -11 -7 -17 -4 -5 4 -2 -5 7 -20 10 -14 13
-26 8 -26 -5 0 -9 -13 -8 -30 0 -16 3 -30 7 -30 5 0 8 5 8 12 0 6 2 9 5 7 9
-10 -8 -49 -19 -42 -6 3 -6 0 2 -8 6 -7 12 -21 12 -31 0 -10 6 -18 14 -18 8 0
17 -4 20 -9 4 -5 -4 -7 -16 -4 -13 3 -19 1 -13 -4 17 -14 41 -47 29 -40 -7 4
-14 0 -17 -8 -4 -9 -1 -12 9 -8 14 5 14 3 2 -16 -11 -18 -11 -23 2 -31 13 -9
12 -13 -5 -27 -18 -14 -18 -15 -1 -9 13 4 17 2 13 -7 -3 -8 -1 -20 3 -28 6 -8
4 -16 -3 -21 -8 -5 -5 -8 8 -9 17 -1 16 -2 -5 -9 l-25 -8 25 -1 c20 -1 22 -3
10 -11 -13 -9 -13 -10 0 -10 13 0 13 -1 0 -10 -12 -8 -12 -10 -1 -10 11 0 11
-3 0 -17 -8 -9 -9 -14 -4 -11 6 3 17 -1 25 -10 13 -14 12 -15 -3 -9 -9 3 -19
1 -23 -5 -5 -7 -2 -8 6 -3 10 6 12 3 8 -13 -4 -16 -2 -19 10 -15 11 5 13 3 6
-8 -13 -21 -14 -40 -1 -32 6 4 8 0 4 -10 -3 -9 -1 -19 5 -23 7 -5 8 -2 3 6 -5
8 -4 11 2 7 5 -3 9 -16 8 -29 -1 -13 2 -31 6 -40 7 -12 4 -18 -9 -21 -13 -4
-12 -5 5 -6 15 -1 21 -7 20 -20 0 -11 -6 -17 -12 -14 -5 4 -2 -2 7 -13 23 -26
23 -37 1 -45 -15 -6 -14 -8 7 -9 22 0 23 -2 7 -11 -9 -6 -15 -15 -11 -20 4 -6
13 -4 25 7 18 16 18 15 6 -9 -6 -14 -16 -23 -22 -20 -5 2 1 -5 14 -16 13 -12
19 -21 14 -21 -5 0 -10 -7 -10 -15 0 -11 4 -12 13 -4 9 8 11 5 7 -10 -3 -12
-10 -18 -17 -15 -6 3 0 -4 14 -16 14 -12 24 -24 23 -26 -8 -12 -1 -24 9 -19 7
4 4 -1 -6 -9 -20 -16 -20 -16 0 -17 13 0 14 -2 5 -6 -10 -4 -8 -9 10 -20 13
-8 16 -12 7 -9 -22 6 -14 -19 16 -53 12 -13 16 -21 10 -18 -7 4 -15 0 -18 -9
-8 -22 -8 -24 8 -24 17 0 29 -27 16 -35 -14 -9 1 -37 16 -31 9 3 11 0 7 -11
-5 -12 -3 -14 7 -8 9 5 11 4 6 -4 -6 -9 -11 -9 -23 1 -15 12 -15 11 -3 -9 8
-12 18 -19 23 -16 5 3 4 -4 -2 -16 -10 -17 -9 -22 4 -28 13 -5 14 -7 3 -14
-10 -7 -8 -9 6 -9 16 0 17 -2 5 -17 -10 -11 -10 -14 -1 -9 7 4 12 2 12 -8 0
-8 8 -20 17 -26 14 -9 14 -10 2 -7 -9 3 -16 -1 -16 -9 0 -7 4 -11 8 -9 4 3 10
-2 13 -11 3 -8 10 -13 15 -9 5 3 13 0 17 -6 4 -8 3 -9 -4 -5 -8 5 -12 -2 -12
-18 0 -14 6 -26 13 -26 8 0 7 -4 -3 -10 -10 -6 -11 -10 -2 -10 6 0 12 -7 12
-16 0 -9 -5 -12 -13 -8 -7 4 -9 3 -4 -2 8 -9 12 -10 39 -13 7 0 3 -8 -8 -16
-14 -11 -15 -14 -3 -9 10 3 20 0 25 -7 5 -8 3 -10 -7 -4 -11 6 -12 5 -1 -6 16
-17 16 -32 0 -23 -7 4 -4 -2 6 -14 11 -12 16 -22 11 -22 -4 0 -2 -6 4 -13 6
-8 7 -18 3 -22 -4 -5 -2 -5 5 -1 7 4 9 14 6 24 -3 9 -3 14 2 10 7 -7 16 -50
18 -90 1 -9 5 -14 9 -12 4 3 8 0 8 -6 0 -6 5 -8 13 -4 7 5 6 0 -3 -11 -14 -17
-13 -17 10 -10 l25 7 -21 -18 -21 -19 23 -18 c15 -11 21 -23 17 -35 -5 -14 -3
-14 9 2 14 18 15 17 10 -15 -5 -31 -3 -33 12 -20 9 8 19 11 23 7 3 -3 1 -6 -5
-6 -7 0 -12 -9 -12 -21 0 -13 4 -18 13 -13 7 5 6 0 -3 -11 -9 -11 -10 -16 -3
-11 8 4 13 1 13 -9 0 -9 10 -25 22 -35 19 -15 20 -20 9 -34 -12 -14 -11 -16 9
-16 18 0 22 -4 18 -25 -5 -22 -3 -23 10 -13 13 11 14 10 3 -9 -9 -19 -9 -22 3
-17 11 4 13 0 9 -15 -4 -16 -1 -21 15 -21 12 0 23 -4 26 -9 3 -4 -6 -7 -19 -5
-14 1 -23 -2 -19 -7 3 -5 9 -7 14 -4 4 3 13 -2 20 -10 11 -13 10 -15 -6 -9
-18 5 -18 5 -1 -6 9 -6 15 -17 11 -23 -3 -7 4 -1 16 13 19 22 20 22 11 3 -14
-28 -14 -36 2 -27 9 6 9 4 1 -7 -8 -10 -7 -21 2 -39 8 -15 14 -19 14 -9 0 8
-6 21 -13 28 -10 10 -9 11 5 6 11 -4 18 -18 18 -32 0 -17 4 -22 12 -17 8 5 7
0 -2 -11 -9 -11 -10 -16 -3 -11 8 4 13 1 13 -8 0 -9 7 -16 16 -16 8 0 12 -5 9
-10 -4 -6 -11 -8 -16 -5 -15 10 -10 -2 8 -16 11 -10 14 -10 9 -1 -4 6 -2 12 3
12 15 0 14 -27 -2 -33 -7 -4 -5 -6 6 -7 9 -2 22 -3 27 -4 12 -1 14 -15 4 -24
-4 -4 -4 -1 1 7 5 9 4 12 -3 7 -16 -10 -2 -38 15 -31 11 3 13 1 10 -10 -4 -8
-2 -17 3 -20 4 -3 10 0 12 7 3 7 7 5 11 -6 4 -10 3 -15 -3 -11 -6 3 -10 1 -10
-4 0 -6 7 -11 15 -11 9 0 12 -6 8 -17 -5 -12 -2 -15 10 -10 12 4 14 2 10 -10
-5 -12 -3 -14 8 -8 8 5 5 -2 -6 -16 -19 -22 -19 -23 -1 -9 18 14 19 13 14 -6
-3 -13 0 -21 8 -21 7 0 10 5 7 11 -4 6 1 5 10 -3 19 -15 23 -26 6 -15 -7 4
-10 1 -7 -7 3 -8 10 -13 16 -12 5 1 8 -7 5 -17 -3 -12 0 -20 6 -20 7 0 9 5 5
13 -5 8 -2 8 9 -2 18 -14 23 -26 8 -16 -6 3 -9 -3 -8 -14 1 -14 5 -17 13 -10
8 7 15 6 20 -2 4 -8 3 -9 -4 -5 -7 4 -12 1 -12 -9 0 -10 5 -13 12 -9 8 5 9 2
5 -9 -3 -9 -3 -16 1 -16 18 3 32 -2 32 -12 0 -5 -5 -7 -12 -3 -6 4 1 -9 16
-29 16 -20 35 -37 43 -37 11 0 11 -4 3 -21 -11 -19 -10 -20 9 -10 17 10 20 9
14 -5 -5 -13 -3 -15 8 -9 12 7 12 6 1 -7 -11 -14 -10 -17 8 -23 11 -3 18 -11
15 -16 -4 -5 -1 -9 5 -9 7 0 9 -9 5 -22 -7 -23 -7 -23 9 -3 15 19 17 19 20 -7
1 -7 8 -12 16 -10 11 3 11 0 0 -13 -11 -13 -10 -15 6 -9 18 5 18 4 -1 -11 -20
-17 -20 -17 3 -10 17 5 22 2 22 -12 0 -15 2 -16 10 -3 8 12 10 9 10 -12 0 -25
9 -33 33 -29 4 0 7 -10 7 -23 0 -16 7 -27 20 -31 11 -4 20 -15 20 -26 0 -11 5
-17 10 -14 5 3 10 -2 10 -12 0 -15 2 -16 10 -3 8 12 10 10 10 -8 0 -15 4 -21
12 -16 8 5 9 2 4 -11 -6 -16 -4 -16 11 -4 11 9 14 10 9 2 -4 -8 -2 -13 4 -13
7 0 10 -7 7 -14 -4 -9 2 -17 14 -21 10 -4 17 -10 14 -15 -3 -5 0 -12 6 -16 8
-4 9 -3 5 4 -4 7 -2 12 5 12 7 0 9 -10 7 -23 -4 -20 -1 -23 19 -21 19 2 22 0
13 -11 -10 -12 -8 -13 9 -10 12 2 19 0 16 -5 -7 -11 10 -47 19 -42 13 5 27 2
23 -6 -3 -4 6 -21 20 -37 17 -21 21 -23 14 -7 -7 12 -8 22 -2 22 5 0 12 -11
15 -25 4 -14 11 -25 17 -25 6 0 7 -6 3 -12 -5 -9 -2 -8 9 1 15 12 17 12 10 -4
-5 -15 -3 -17 11 -12 10 4 15 3 11 -3 -9 -15 18 -47 37 -44 14 2 16 -1 8 -16
-8 -15 -6 -17 10 -13 12 3 20 0 20 -6 0 -7 -5 -9 -12 -5 -7 4 -8 3 -4 -5 6 -8
12 -9 20 -2 9 8 16 4 26 -14 7 -13 17 -22 23 -18 5 3 4 -3 -2 -14 -9 -18 -7
-20 14 -17 14 1 23 -2 20 -6 -3 -5 4 -11 15 -15 11 -3 20 -13 20 -21 0 -8 5
-12 10 -9 6 3 10 -1 10 -9 0 -10 9 -16 21 -16 19 0 20 -2 8 -17 -10 -11 -10
-14 -1 -9 6 4 12 3 12 -1 0 -5 10 -13 23 -18 12 -6 21 -17 21 -26 -1 -9 5 -16
12 -16 7 0 10 5 7 10 -4 6 -1 7 6 2 7 -4 10 -16 8 -27 -4 -16 -3 -17 9 -7 11
9 14 9 14 0 0 -7 5 -9 10 -6 6 4 10 3 9 -2 -1 -4 1 -16 6 -26 5 -13 11 -15 21
-6 10 8 12 6 9 -11 -3 -18 -2 -20 10 -10 14 12 20 4 17 -21 -1 -4 12 -12 28
-19 17 -7 30 -17 30 -22 0 -5 4 -7 8 -4 4 2 14 0 22 -5 12 -7 13 -11 2 -18
-11 -7 -10 -9 3 -14 9 -4 13 -3 10 3 -3 6 1 10 9 10 9 0 23 -15 31 -32 8 -18
13 -25 11 -16 -4 12 0 15 9 11 8 -3 12 -9 9 -14 -4 -8 8 -13 27 -11 3 0 16 -9
30 -21 14 -12 20 -18 13 -14 -7 5 -15 2 -20 -5 -4 -7 -4 -10 1 -6 4 4 20 -1
35 -12 16 -11 35 -20 44 -20 9 0 16 -8 16 -19 0 -14 6 -19 20 -16 14 3 20 -2
20 -13 0 -15 2 -15 10 -2 7 11 10 11 10 2 0 -7 4 -11 9 -7 5 3 13 0 17 -6 4
-8 3 -9 -4 -5 -7 4 -12 2 -12 -5 0 -6 8 -9 20 -6 11 3 18 1 14 -4 -5 -8 9 -13
29 -10 4 0 6 -2 6 -6 -4 -22 3 -29 24 -28 25 3 49 -13 41 -26 -3 -5 2 -9 11
-9 9 0 14 -4 11 -8 -5 -8 1 -10 43 -14 12 -2 17 -8 13 -17 -4 -10 -1 -13 11
-8 9 3 17 2 17 -4 0 -6 4 -8 9 -4 5 3 13 0 17 -6 4 -8 3 -9 -4 -5 -7 4 -12 3
-12 -2 0 -10 44 -32 65 -32 8 0 15 -6 15 -14 0 -9 8 -12 25 -8 24 4 31 -5 26
-32 -1 -5 6 -3 15 5 12 9 15 9 10 2 -7 -13 4 -17 33 -14 7 2 10 -2 6 -8 -3 -6
1 -11 9 -11 9 0 16 -8 16 -17 0 -14 2 -15 9 -4 6 9 11 10 15 3 4 -6 12 -10 19
-8 7 1 9 1 5 -1 -5 -3 -8 -9 -8 -14 0 -6 5 -7 10 -4 6 3 10 2 10 -3 0 -6 7
-13 16 -16 8 -3 12 -2 9 3 -3 5 -1 12 5 16 6 3 10 -4 10 -17 0 -17 3 -19 9 -9
7 11 10 9 16 -9 6 -18 9 -20 16 -9 6 10 9 11 9 2 0 -7 10 -13 22 -13 12 0 35
-12 51 -27 17 -16 27 -23 23 -16 -3 6 -2 15 4 18 6 4 10 3 9 -2 -1 -4 -1 -14
0 -22 1 -11 4 -11 18 0 11 10 14 10 9 2 -7 -12 5 -18 27 -14 5 1 5 -9 2 -21
-7 -23 -7 -23 15 2 22 24 22 24 16 3 -6 -18 -4 -22 8 -17 11 4 15 1 13 -7 -2
-8 -2 -11 0 -6 3 4 9 7 14 7 6 0 8 -4 4 -9 -3 -6 5 -8 19 -5 17 3 28 -3 39
-19 11 -17 25 -23 53 -24 21 -1 40 -6 42 -12 2 -6 8 -11 13 -11 6 0 7 5 3 12
-4 7 -3 8 4 4 6 -4 9 -13 5 -21 -3 -8 0 -15 6 -15 6 0 11 6 11 13 0 9 2 9 8
-1 5 -7 22 -14 39 -15 26 -2 29 -5 20 -16 -10 -12 -8 -12 13 -1 23 12 24 12
11 -4 -8 -9 -10 -16 -5 -15 25 4 45 -2 38 -13 -4 -7 -3 -8 5 -4 6 4 9 11 7 15
-3 4 1 8 9 8 8 0 12 -4 9 -9 -3 -4 0 -8 6 -8 6 0 8 -5 4 -12 -4 -6 -3 -8 4 -4
5 3 13 0 15 -6 4 -10 6 -10 6 0 1 6 6 12 12 12 5 0 7 -4 4 -10 -6 -9 8 -14 29
-11 4 1 14 -3 21 -9 7 -6 20 -8 29 -4 11 4 15 2 11 -8 -4 -9 0 -15 9 -15 8 0
12 6 9 14 -3 8 6 4 20 -10 25 -22 62 -34 51 -15 -3 4 -1 8 4 8 6 0 12 -7 16
-15 3 -8 12 -12 21 -9 8 4 15 1 15 -6 0 -7 7 -10 16 -6 8 3 12 2 9 -4 -10 -17
7 -11 20 7 9 13 14 13 20 3 5 -9 4 -11 -3 -6 -7 4 -12 1 -12 -9 0 -12 4 -14
19 -5 14 7 22 7 26 0 4 -6 11 -8 16 -5 5 4 12 -1 15 -9 4 -10 18 -16 36 -16
19 0 27 -4 22 -12 -4 -6 -3 -8 4 -4 6 3 14 2 17 -4 5 -8 11 -7 21 1 11 9 14 8
14 -7 0 -16 2 -17 10 -4 6 10 10 11 10 2 0 -6 3 -11 8 -11 30 5 72 -3 66 -12
-5 -8 -1 -8 14 0 17 9 24 6 43 -13 18 -19 28 -22 46 -15 16 6 23 5 23 -4 0 -8
4 -7 10 3 8 13 10 12 10 -4 0 -20 0 -20 15 0 13 16 14 16 9 2 -7 -21 6 -23 25
-6 11 10 13 10 7 1 -4 -7 -2 -13 4 -13 6 0 8 -5 4 -12 -4 -7 -3 -8 5 -4 6 4 9
13 5 19 -3 7 3 3 13 -8 19 -21 49 -33 39 -16 -4 5 -2 12 4 16 5 3 10 1 10 -6
0 -7 3 -10 6 -6 4 3 21 -1 38 -10 29 -15 30 -15 17 1 -12 14 -12 16 3 10 9 -3
16 -11 16 -16 0 -6 6 -6 14 1 11 9 20 10 35 1 16 -8 21 -8 21 1 0 7 3 10 6 7
3 -4 0 -17 -7 -30 -11 -21 -11 -22 5 -8 22 18 46 22 46 7 0 -5 3 -7 7 -4 3 4
12 2 20 -4 10 -9 13 -7 13 7 0 16 2 16 16 -4 13 -18 19 -21 30 -11 8 6 17 9
21 6 3 -4 13 -1 22 6 14 11 14 10 2 -5 -7 -10 -18 -15 -24 -11 -6 3 -7 1 -3
-6 4 -6 12 -8 18 -5 6 4 15 0 20 -7 8 -11 9 -10 4 3 -6 20 9 25 20 7 5 -8 9
-8 14 1 5 8 12 7 24 -5 12 -12 16 -13 16 -3 0 10 2 10 9 -1 7 -11 9 -11 14 0
4 10 6 10 6 2 1 -7 6 -13 12 -13 5 0 7 5 3 11 -3 6 5 4 19 -5 23 -16 26 -16
41 -1 15 15 16 15 16 -2 0 -15 2 -16 10 -3 5 8 10 11 10 5 0 -6 29 -10 68 -10
48 0 71 -4 80 -15 11 -13 11 -13 7 1 -4 10 0 16 10 16 8 0 15 -5 15 -11 0 -6
5 -4 10 4 8 13 10 13 10 -2 0 -9 4 -19 9 -22 5 -4 7 4 4 16 -3 14 -1 19 4 12
4 -6 16 -14 27 -17 14 -6 17 -4 12 9 -5 14 -4 15 9 4 8 -7 12 -16 9 -21 -3 -5
2 -6 11 -2 14 5 14 8 3 15 -9 7 -8 8 5 4 10 -3 21 -6 23 -6 3 0 3 -4 0 -9 -7
-11 21 -8 31 4 4 4 2 5 -4 1 -9 -5 -11 -2 -6 10 5 15 7 14 17 -3 12 -20 23
-23 45 -9 10 6 12 5 7 -2 -4 -7 -2 -12 3 -12 6 0 11 6 11 13 0 9 3 8 9 -2 6
-9 11 -10 15 -2 4 6 12 9 17 5 6 -3 6 -11 2 -18 -4 -7 0 -3 10 7 16 18 22 15
18 -7 -1 -5 5 -4 13 4 9 7 16 9 16 5 0 -4 8 -1 17 6 15 12 16 12 10 -3 -3 -10
-2 -18 3 -18 6 0 10 5 10 10 0 6 5 10 11 10 5 0 7 -5 4 -11 -4 -6 2 -5 13 2
17 10 23 10 36 0 14 -11 16 -11 17 5 0 12 3 14 6 6 4 -10 8 -10 21 0 9 7 13 8
9 2 -4 -7 7 -11 29 -12 19 -1 40 -5 46 -8 7 -5 8 -2 3 6 -6 10 -4 12 10 6 11
-4 22 -2 27 6 6 10 8 10 8 1 0 -7 5 -13 11 -13 6 0 9 7 6 14 -4 10 -1 13 8 9
8 -3 12 -9 9 -15 -3 -5 3 -4 14 3 12 7 18 18 14 24 -3 6 0 6 9 -1 16 -13 49
-15 49 -3 0 5 7 6 15 3 21 -8 9 -24 -15 -19 -12 2 -18 0 -15 -5 5 -9 23 -8 40
1 6 3 20 4 33 3 17 -1 22 3 17 14 -4 12 0 11 16 -4 12 -10 19 -14 16 -7 -4 6
-3 14 3 18 9 6 14 -7 11 -28 -2 -12 6 -8 20 10 12 14 12 16 0 8 -10 -5 -12 -4
-7 4 6 9 11 9 21 1 8 -7 15 -7 19 -1 7 10 31 9 42 -2 11 -10 24 -8 24 4 0 5
-6 7 -12 3 -7 -4 -10 -3 -5 1 9 11 48 14 41 4 -2 -4 0 -10 6 -14 5 -3 10 0 10
8 0 12 7 13 34 7 19 -4 40 -4 47 1 7 4 19 3 26 -3 9 -7 14 -6 19 6 6 15 8 15
20 -1 11 -15 13 -15 8 -2 -6 19 22 34 32 17 5 -7 2 -8 -6 -3 -9 6 -11 4 -5 -5
7 -11 10 -10 19 1 14 18 60 24 50 6 -6 -9 -5 -9 7 0 12 10 18 10 28 0 11 -10
11 -7 1 13 -7 14 -9 22 -5 18 5 -4 15 -2 24 5 14 10 14 10 3 -4 -10 -14 -10
-18 3 -23 9 -3 13 -2 10 4 -3 6 3 10 14 10 10 0 28 3 38 7 14 5 16 4 8 -8 -5
-8 -2 -6 8 4 9 11 17 14 17 8 0 -6 5 -11 11 -11 5 0 7 6 3 13 -5 7 0 6 11 -3
11 -9 16 -10 11 -2 -4 7 -2 12 6 12 8 0 20 -6 27 -12 11 -11 12 -10 6 1 -6 11
-4 13 10 7 15 -5 16 -4 5 9 -11 13 -11 16 1 13 8 -2 17 -7 20 -11 4 -5 13 -2
20 6 12 13 15 12 26 -2 10 -14 11 -12 6 9 -6 24 -6 24 11 8 22 -23 27 -23 19
-1 -6 15 -4 16 9 5 12 -10 18 -9 28 3 8 9 21 13 32 9 10 -3 26 0 35 8 9 7 14
8 10 2 -3 -6 0 -11 8 -11 8 0 12 8 10 20 -3 15 -1 16 9 8 18 -15 58 -23 51
-10 -4 5 -12 6 -18 3 -7 -4 -8 -3 -4 2 12 12 30 12 39 -1 5 -6 8 -4 8 5 0 13
1 13 10 0 8 -13 10 -12 10 4 0 15 3 16 15 6 12 -10 16 -9 21 5 6 13 9 14 16 3
7 -9 8 -6 5 10 -5 19 -3 21 9 11 7 -6 11 -16 8 -23 -3 -6 1 -3 9 7 8 9 20 17
26 17 7 0 9 5 5 12 -4 7 -3 8 5 4 6 -4 19 -2 28 6 9 7 14 8 10 2 -4 -8 2 -11
17 -10 20 1 22 4 13 15 -10 12 -9 13 8 4 15 -9 22 -8 33 5 7 10 11 12 8 6 -3
-7 5 -11 23 -10 21 1 27 5 23 16 -5 13 -3 13 10 2 11 -9 18 -10 23 -2 3 6 11
7 17 4 7 -4 8 -2 4 5 -6 9 -12 9 -24 -1 -15 -12 -16 -11 -3 5 13 16 15 17 40
0 22 -14 24 -14 13 -1 -8 10 -9 19 -3 22 5 3 12 0 14 -6 4 -10 6 -10 6 0 1 7
6 10 13 6 7 -5 9 -2 5 9 -4 11 -2 14 9 10 8 -3 21 0 29 7 13 11 14 10 8 -6 -5
-16 -4 -17 8 -8 8 6 25 15 38 19 18 5 22 4 16 -5 -6 -9 -4 -11 4 -6 7 5 10 15
6 23 -4 13 -3 14 10 3 13 -11 14 -10 10 2 -4 9 0 15 9 15 8 0 13 -3 11 -7 -2
-3 6 -6 18 -7 12 0 16 1 10 4 -21 8 -15 22 7 16 12 -3 20 0 20 7 0 10 3 10 14
1 11 -9 17 -8 28 7 7 10 20 22 28 27 12 7 13 6 3 -6 -10 -12 -8 -15 7 -15 11
0 17 2 15 4 -4 4 32 42 41 42 3 0 2 -5 -2 -12 -4 -7 -3 -8 5 -4 6 4 9 12 6 17
-4 5 1 9 10 9 10 0 14 -5 10 -12 -4 -7 1 -4 10 7 11 13 19 16 22 8 3 -8 10 -7
22 5 10 9 15 22 12 27 -2 6 4 3 14 -5 15 -12 17 -12 10 -1 -6 11 -4 13 8 8 12
-4 17 -1 18 11 0 11 2 13 6 4 4 -10 9 -9 20 5 8 10 12 13 9 6 -4 -6 -1 -15 5
-19 7 -4 9 -3 5 4 -3 6 -2 13 4 17 6 4 7 11 4 17 -4 6 2 6 15 -1 16 -9 21 -9
21 0 0 8 5 7 17 -2 15 -13 15 -12 4 9 -12 22 -11 23 9 12 13 -7 20 -8 16 -2
-3 6 -2 13 4 17 5 3 10 1 10 -5 0 -6 4 -9 10 -5 5 3 6 13 3 23 -6 15 -3 14 16
-2 22 -20 22 -20 15 0 -4 10 -4 16 1 12 4 -4 15 1 24 10 9 10 12 13 8 6 -5 -7
-3 -15 4 -20 8 -4 9 -3 5 4 -4 7 -2 12 3 12 6 0 11 7 11 16 0 14 1 14 16 0 20
-20 30 -21 14 -1 -13 15 -12 16 29 19 11 0 23 5 28 10 5 5 2 6 -6 1 -10 -5
-12 -4 -7 3 5 9 13 9 27 1 19 -10 20 -9 9 11 -11 20 -10 21 10 10 15 -8 20 -8
16 -1 -4 6 -2 11 4 11 6 0 8 5 4 11 -5 8 -1 8 14 0 15 -8 23 -7 32 4 10 12 16
13 29 3 10 -8 8 -3 -4 11 -11 14 -14 21 -6 16 8 -4 17 -2 22 6 4 8 13 15 19
15 5 1 15 2 21 3 5 0 8 5 5 9 -3 5 1 9 9 9 8 0 12 -5 9 -11 -3 -6 3 -1 13 10
10 12 28 25 40 28 11 4 24 14 27 23 5 13 9 13 23 2 12 -10 14 -10 9 -1 -4 7
-2 12 4 12 6 0 8 5 4 13 -5 8 -2 8 9 -2 14 -11 20 -11 32 -1 8 7 15 18 16 24
0 6 14 22 32 36 17 14 28 20 24 13 -4 -6 -3 -14 3 -18 5 -3 10 1 10 9 0 8 5
18 12 22 8 5 9 2 5 -10 -4 -11 -3 -15 4 -10 6 3 8 15 5 27 -3 14 -2 17 6 9 8
-8 15 -7 25 4 8 8 20 11 26 7 7 -3 9 -3 5 2 -5 5 1 15 12 22 11 8 18 18 16 22
-3 3 3 7 12 8 39 3 57 11 56 26 -1 15 12 17 33 4 6 -4 15 -2 19 4 4 7 3 9 -3
6 -6 -4 -14 0 -17 9 -4 10 -1 14 6 11 7 -2 19 3 26 12 8 9 11 10 7 4 -3 -7 -2
-13 3 -13 5 0 12 9 15 20 3 11 10 20 17 20 6 0 8 -6 4 -12 -4 -8 -3 -10 2 -5
5 5 9 14 9 20 0 7 9 13 20 15 11 2 25 9 30 14 7 7 6 9 -1 5 -6 -3 -11 0 -11 8
0 8 3 13 6 12 3 -1 17 4 31 11 23 12 24 12 6 -2 -16 -13 -17 -18 -7 -29 7 -6
11 -7 10 -2 -5 15 24 55 38 55 7 0 13 5 13 11 0 5 -6 7 -12 3 -10 -5 -10 -3 0
7 11 12 14 12 23 -1 9 -12 10 -11 6 6 -3 13 1 21 9 21 7 0 10 -5 7 -10 -4 -6
-1 -7 6 -3 7 5 10 14 7 21 -3 9 3 12 19 11 17 -2 22 1 20 14 -2 11 3 17 13 16
9 0 17 6 17 14 0 8 6 16 13 16 6 1 20 2 30 3 13 1 14 3 4 10 -10 6 -8 10 9 14
20 5 21 8 8 24 -13 16 -12 17 3 4 15 -11 22 -11 44 4 14 9 23 19 21 22 -7 6
67 83 79 83 4 0 3 -5 -4 -12 -7 -7 -12 -17 -12 -22 0 -6 7 0 16 12 8 12 12 28
8 35 -4 6 -4 9 0 5 5 -4 19 5 33 20 14 15 20 19 12 8 -16 -22 -21 -48 -8 -40
5 3 7 9 4 14 -6 10 20 32 29 23 4 -4 4 1 0 11 -6 15 -4 17 6 11 8 -5 11 -4 7
2 -8 12 17 36 26 26 4 -3 7 1 7 10 0 9 4 19 10 22 6 3 7 -1 4 -12 -3 -10 2 -6
11 10 8 15 18 27 21 27 3 0 2 -5 -2 -12 -4 -7 -3 -8 4 -4 6 4 9 13 5 21 -4 11
-1 13 13 8 12 -4 15 -3 10 5 -4 7 -1 12 8 12 8 0 18 5 22 12 4 7 3 8 -4 4 -8
-5 -10 -2 -6 8 3 9 13 16 21 16 9 0 13 6 10 14 -4 10 -1 13 9 9 8 -3 14 1 14
11 0 10 6 13 15 10 10 -4 15 0 15 11 0 10 -5 13 -12 9 -7 -4 -8 -3 -4 4 5 9
13 9 28 1 11 -6 18 -7 15 -2 -7 12 31 55 42 49 4 -3 8 2 8 10 0 10 -4 11 -11
4 -5 -5 -15 -10 -21 -10 -5 0 -2 5 8 11 9 6 15 14 12 19 -3 4 4 6 15 3 11 -3
20 -1 20 5 0 6 9 13 19 17 12 4 18 12 14 20 -3 8 2 18 11 21 9 3 13 10 10 15
-3 5 -1 9 5 9 5 0 12 -6 15 -12 3 -7 3 -2 0 11 -4 16 -3 21 5 17 6 -4 11 -2
11 4 0 6 4 9 9 5 5 -3 13 0 17 6 5 8 3 9 -6 4 -8 -5 -11 -3 -8 6 3 8 10 13 16
12 6 -2 9 4 6 11 -6 16 29 40 41 28 4 -4 3 3 -4 15 -10 19 -9 21 8 18 11 -2
25 3 32 11 10 12 9 13 -7 8 -18 -7 -18 -6 1 13 11 11 23 19 28 16 4 -2 7 3 7
11 0 14 11 20 31 18 4 -1 6 6 5 16 0 9 5 17 13 17 8 0 16 7 18 15 4 12 3 12
-5 2 -8 -11 -10 -11 -15 1 -3 9 2 21 11 29 11 9 14 10 8 1 -11 -20 9 -15 27 5
10 10 14 22 10 25 -3 4 -1 7 7 7 10 0 10 3 -1 17 -13 15 -12 15 11 3 14 -7 22
-9 18 -5 -4 4 3 16 15 27 12 11 16 17 10 13 -24 -12 -13 8 19 37 17 15 26 28
19 28 -7 0 -10 4 -6 10 3 5 11 8 18 6 7 -1 9 -1 5 1 -14 8 -8 25 6 20 10 -4
13 -1 10 7 -3 7 6 21 20 31 13 10 22 24 19 32 -5 12 9 18 31 14 5 -1 4 5 -4
13 -10 13 -10 16 4 16 10 0 14 5 11 10 -3 6 -2 10 4 10 6 0 14 12 17 26 5 20
9 23 16 12 7 -9 8 -7 5 10 -3 12 1 25 8 30 8 4 14 10 14 15 1 4 4 7 9 6 4 -1
6 -5 4 -11 -1 -5 2 -7 6 -4 5 3 8 20 6 37 -3 25 -1 30 12 25 8 -3 12 -2 9 4
-3 6 -1 10 5 10 6 0 8 4 5 10 -7 11 19 53 27 45 3 -3 8 8 11 25 4 16 11 30 17
30 6 0 8 -5 4 -12 -4 -6 -3 -8 4 -5 5 4 8 16 5 27 -3 11 0 20 6 20 6 0 10 6 9
13 -2 7 5 11 17 9 19 -3 19 -3 2 10 -17 13 -17 15 -3 27 8 7 20 10 27 6 8 -6
8 -1 -1 15 -10 19 -9 22 10 27 13 3 19 11 16 19 -5 12 5 18 25 16 4 -1 5 7 2
18 -3 11 -10 17 -17 13 -6 -4 -5 1 3 11 8 10 23 15 33 12 16 -4 17 -2 7 10 -9
11 -9 17 1 29 6 8 8 20 4 27 -5 8 -1 8 11 -2 16 -13 18 -13 13 0 -3 8 2 21 11
28 10 9 11 11 2 6 -11 -5 -13 -3 -8 10 4 10 7 20 7 22 0 2 7 4 15 4 8 0 15 5
15 11 0 5 -5 7 -12 3 -6 -4 -3 4 8 18 10 14 23 24 27 21 5 -3 4 4 -2 16 -10
17 -9 21 4 21 8 0 15 7 15 15 0 8 6 15 13 15 7 0 8 3 2 8 -5 4 -11 13 -13 21
-3 12 0 12 13 1 13 -11 14 -10 9 5 -6 14 -4 16 7 10 11 -7 11 -5 -1 10 -12 15
-12 17 -1 10 11 -6 13 -2 8 21 -5 27 -4 28 10 9 14 -18 15 -18 9 -2 -4 13 2
25 16 39 13 11 17 17 11 13 -7 -3 -13 -2 -13 3 0 6 7 13 16 16 14 5 14 9 3 23
-12 14 -12 16 0 8 11 -6 13 -4 8 8 -6 16 8 23 36 18 4 -1 0 10 -8 23 -12 18
-13 26 -4 32 8 5 9 3 4 -6 -5 -9 -4 -11 4 -6 6 4 9 11 6 16 -3 5 2 13 11 18
11 6 13 11 5 16 -6 4 -11 2 -11 -4 0 -6 -5 -8 -11 -4 -8 5 -6 10 5 16 9 5 16
16 16 25 0 8 6 13 13 10 12 -5 16 8 18 66 0 13 5 17 17 12 9 -3 13 -3 10 0 -4
4 -3 18 3 32 6 16 5 22 -1 18 -6 -3 -7 1 -4 9 3 9 10 13 15 10 5 -3 9 2 9 11
0 8 7 18 15 21 8 4 12 10 9 15 -3 5 -14 -1 -25 -13 l-20 -23 16 27 c9 15 14
32 10 37 -3 7 0 8 9 5 19 -7 21 7 4 25 -11 11 -10 12 1 6 11 -6 13 -3 8 16 -6
23 -6 24 10 4 15 -20 15 -19 8 4 -6 18 -4 22 6 15 10 -6 10 -3 -1 11 -13 17
-13 18 1 13 10 -4 16 -1 16 8 0 9 -6 13 -15 9 -12 -4 -12 -2 -4 8 7 8 9 17 5
20 -3 4 2 9 11 13 13 5 14 9 5 20 -10 12 -9 13 5 8 12 -5 15 -2 10 10 -3 9
-11 13 -17 9 -6 -4 -7 -1 -3 6 6 9 12 9 25 -3 15 -14 18 -14 18 -1 0 8 -4 12
-9 9 -13 -8 -9 21 4 34 9 9 9 12 -1 12 -7 0 -9 5 -6 10 4 6 12 7 18 3 7 -4 4
6 -7 21 -10 16 -13 26 -8 22 6 -3 13 -2 17 4 4 6 11 7 17 4 6 -4 8 -2 4 4 -3
5 -1 12 6 14 9 3 9 6 0 12 -7 4 -12 2 -12 -3 0 -6 -5 -11 -11 -11 -8 0 -8 4 1
15 6 8 8 20 4 27 -6 10 -5 10 7 1 11 -9 14 -7 15 13 1 15 -2 21 -10 17 -12 -8
13 28 29 39 6 5 5 8 -2 8 -7 0 -13 5 -13 11 0 6 7 9 14 6 15 -6 12 16 -5 39
-5 6 -3 11 6 11 8 0 12 -4 9 -8 -2 -4 -1 -10 4 -13 4 -2 8 6 8 19 0 14 -4 21
-10 17 -6 -3 -5 1 2 10 10 13 10 17 0 21 -7 3 -3 6 9 6 12 1 25 5 28 11 3 6
-1 7 -9 4 -9 -3 -16 -1 -16 5 0 6 5 11 12 11 6 0 3 7 -8 15 -16 13 -16 14 -1
9 13 -5 16 -2 11 10 -4 11 1 23 12 32 11 9 14 13 8 10 -7 -3 -15 1 -18 10 -4
10 -2 13 6 8 8 -5 9 -2 4 11 -5 15 -4 16 9 5 13 -11 14 -10 9 4 -3 9 -10 16
-16 16 -5 0 -6 5 -3 10 5 8 12 7 23 -2 14 -12 14 -10 -1 11 -12 18 -13 29 -6
43 5 10 14 16 20 13 14 -9 11 2 -7 19 -14 15 -14 16 1 16 12 0 14 4 5 19 -7
14 -7 22 2 27 7 5 8 3 3 -7 -5 -8 -4 -10 0 -6 14 12 15 38 2 30 -13 -8 12 28
28 39 7 5 6 8 0 8 -6 0 -16 -5 -22 -11 -8 -8 -13 -7 -18 2 -5 7 -4 10 3 5 12
-7 27 29 17 43 -3 5 0 13 6 17 8 4 9 3 5 -4 -4 -7 -2 -12 4 -12 7 0 9 8 5 21
-4 13 -3 19 2 16 5 -4 10 0 10 8 0 8 -7 15 -14 15 -8 0 -11 5 -8 10 4 6 10 8
14 6 4 -3 7 4 8 14 1 13 -3 17 -15 13 -10 -3 -13 -1 -7 4 6 4 17 17 25 27 14
18 13 19 -4 13 -14 -6 -16 -5 -8 5 6 7 10 17 10 21 0 5 4 12 8 15 4 4 4 2 1
-4 -3 -6 1 -11 10 -11 12 0 11 5 -7 19 -21 17 -19 22 5 19 6 -1 1 6 -10 15
-20 16 -19 16 5 11 24 -6 24 -5 6 8 -18 14 -19 15 -2 15 16 0 15 2 -5 18 -17
15 -19 21 -9 27 8 5 11 4 6 -3 -3 -6 -2 -13 4 -17 5 -3 10 -3 11 2 0 4 2 16 4
26 2 9 -1 15 -6 11 -5 -3 -9 0 -9 5 0 6 5 11 11 11 6 0 9 6 6 13 -2 6 -1 22 4
33 5 14 2 29 -7 42 -13 18 -12 20 6 15 12 -3 20 0 20 6 0 7 -4 9 -10 6 -5 -3
-10 -1 -10 5 0 6 -6 8 -12 4 -7 -4 -4 2 6 14 11 12 16 22 12 22 -4 0 -2 8 3
18 7 13 7 22 0 29 -8 8 -7 13 1 18 8 5 6 11 -7 21 -15 11 -15 13 -1 8 11 -4
16 0 15 13 -1 10 4 17 11 15 8 -1 11 2 7 7 -3 6 -13 7 -23 4 -15 -6 -15 -5 -3
10 7 9 10 17 6 17 -5 0 0 9 10 20 10 11 13 20 7 20 -6 0 -12 -6 -15 -12 -3 -7
-5 1 -4 19 0 21 4 30 11 26 6 -4 2 4 -8 16 -17 18 -17 21 -3 15 10 -3 17 -1
17 5 0 6 -8 11 -17 11 -11 0 -14 3 -7 8 6 4 10 15 8 25 -1 9 2 15 7 11 5 -3 7
-9 4 -14 -3 -5 -2 -11 3 -14 4 -2 8 6 8 20 0 15 -6 24 -15 24 -13 0 -13 2 -2
9 11 7 10 10 -4 18 -16 9 -16 11 -1 16 12 5 15 3 10 -6 -4 -6 -3 -8 1 -4 17
15 14 39 -3 33 -15 -5 -15 -4 1 8 15 12 15 14 2 19 -18 8 -9 34 13 40 15 4 15
5 0 6 -12 1 -18 9 -18 27 0 14 4 23 8 20 4 -2 8 5 9 17 0 12 -1 16 -4 10 -8
-21 -18 -15 -18 11 0 15 5 22 13 18 8 -3 6 8 -7 29 -15 24 -17 36 -9 46 6 7 6
13 2 13 -11 0 -11 100 -1 117 4 6 1 14 -5 17 -9 3 -7 9 6 20 18 15 13 21 -15
18 -3 -1 -3 12 -1 29 2 17 9 26 15 22 6 -4 7 -1 1 8 -12 20 -16 51 -4 44 5 -3
3 7 -5 22 -13 25 -13 29 3 35 9 4 12 7 6 7 -5 1 -19 8 -30 16 -16 13 -16 14
-1 9 12 -4 17 -1 17 11 0 9 -3 14 -8 11 -4 -2 -7 10 -7 27 0 19 6 35 15 39 13
6 12 7 -1 7 -17 1 -36 31 -20 31 5 0 11 -6 14 -12 3 -7 4 -3 4 10 -1 14 -6 21
-14 18 -7 -3 -15 0 -19 6 -4 7 -3 8 4 4 8 -5 12 0 12 13 0 12 -5 21 -11 21 -8
0 -7 6 2 17 11 13 11 17 2 20 -7 3 -13 9 -13 14 0 6 6 7 13 3 9 -6 9 -4 -1 8
-14 17 -6 51 11 41 6 -3 7 -1 3 6 -5 8 -12 9 -20 2 -8 -7 -12 -4 -13 10 -1 11
2 17 7 14 6 -3 7 1 4 9 -3 9 -11 13 -18 9 -7 -4 -7 -2 1 7 9 10 9 16 -2 26
-10 10 -11 22 -5 45 7 24 6 28 -3 20 -10 -7 -12 0 -12 32 1 24 5 49 10 56 5
10 4 12 -3 7 -7 -4 -12 -1 -12 8 0 8 -6 17 -12 19 -10 4 -10 6 0 6 6 1 12 6
12 12 0 5 -4 7 -10 4 -13 -8 -13 38 0 51 7 7 6 11 -4 11 -8 0 -12 -5 -9 -10 3
-6 1 -7 -6 -3 -9 6 -9 11 0 22 7 8 7 14 1 14 -15 0 -23 28 -10 36 6 4 8 3 4
-4 -3 -6 -2 -13 3 -16 10 -7 9 20 -2 30 -4 4 -7 18 -7 31 0 15 -6 23 -17 24
-14 0 -13 2 5 9 12 5 22 12 22 14 0 3 -6 3 -14 0 -8 -3 -17 -1 -21 5 -6 10 8
16 30 11 6 -1 6 2 2 7 -8 8 -12 9 -38 12 -8 1 -8 6 1 16 7 8 8 15 2 15 -5 0
-12 9 -15 20 -3 13 -1 18 6 13 7 -4 8 0 2 13 -4 10 -8 29 -8 41 -1 12 -5 19
-9 17 -5 -3 -5 -10 -2 -16 4 -6 2 -8 -4 -5 -5 4 -8 17 -4 29 4 16 2 19 -9 13
-12 -7 -12 -6 -1 7 10 13 10 17 -2 21 -9 4 -12 16 -10 37 3 21 -3 41 -16 57
-24 30 -27 56 -4 27 15 -17 15 -17 0 8 -8 15 -17 41 -18 58 -1 19 -7 29 -14
26 -18 -7 -25 5 -13 21 9 9 8 13 0 13 -9 0 -9 5 0 22 10 18 9 20 -6 14 -15 -5
-16 -4 -5 9 9 11 10 18 1 28 -6 8 -7 18 -3 22 4 5 1 5 -6 0 -10 -5 -11 -10 -3
-18 14 -14 14 -27 -1 -27 -6 0 -8 3 -5 7 4 3 2 12 -4 20 -6 7 -8 13 -4 13 4 0
2 6 -4 14 -15 18 -23 59 -10 51 14 -10 11 9 -7 31 -8 10 -13 14 -10 7 4 -6 2
-14 -3 -17 -10 -6 -10 11 0 29 5 9 5 19 0 41 0 4 -8 0 -18 -7 -15 -13 -15 -12
-4 9 10 18 9 22 -4 22 -9 0 -13 5 -10 10 4 6 12 7 18 3 7 -4 6 0 -2 10 -7 9
-19 17 -27 17 -7 0 -16 4 -19 10 -3 6 1 7 10 4 23 -9 15 12 -18 48 -21 24 -25
34 -16 44 9 11 8 14 -1 14 -10 0 -10 3 -1 14 8 10 9 16 1 21 -6 3 -7 11 -4 17
4 7 2 8 -5 4 -6 -4 -9 -11 -6 -16 3 -5 1 -11 -4 -14 -4 -3 -8 2 -8 12 0 36 -3
43 -15 36 -10 -6 -10 -4 0 8 10 13 10 17 -3 21 -8 4 -12 13 -9 22 3 8 1 15 -5
15 -6 0 -11 5 -11 11 0 5 5 7 12 3 7 -4 8 -3 4 5 -6 9 -11 9 -24 -1 -14 -12
-14 -10 -3 11 8 14 9 26 3 30 -5 3 -8 14 -7 23 2 11 -2 15 -11 11 -8 -3 -14 0
-14 7 0 6 -6 8 -12 4 -10 -6 -10 -4 0 7 14 16 16 33 2 24 -6 -4 -10 5 -10 19
0 18 -5 26 -17 26 -15 0 -16 2 -3 10 12 8 10 10 -10 11 -14 0 -19 3 -13 6 9 3
10 10 4 21 -5 9 -10 19 -10 22 -11 41 -15 50 -23 50 -5 0 -6 -4 -3 -10 3 -5 1
-10 -4 -10 -14 0 -14 13 -1 26 6 6 5 15 -1 24 -9 12 -10 12 -5 -3 3 -11 2 -16
-4 -12 -6 3 -10 13 -10 21 0 9 -5 12 -12 8 -10 -6 -10 -4 0 7 14 16 16 33 2
24 -5 -3 -10 1 -10 9 0 9 -3 15 -7 13 -5 -1 -9 3 -11 8 -2 6 -11 19 -20 30
-16 19 -16 19 1 6 15 -12 17 -12 11 3 -3 9 -14 16 -23 16 -14 0 -14 2 -1 10
13 8 12 10 -3 10 -10 0 -15 5 -12 10 3 6 2 10 -3 10 -5 0 -9 10 -8 23 1 14 -5
22 -16 22 -9 0 -20 4 -25 9 -4 5 -3 6 5 2 7 -4 12 -1 12 9 0 10 -7 15 -17 13
-14 -2 -17 3 -15 25 2 17 -3 29 -13 33 -8 3 -15 12 -15 20 0 8 -4 14 -10 14
-5 0 -10 7 -10 14 0 8 -11 27 -24 41 -15 16 -22 33 -19 42 5 12 3 14 -7 8 -10
-6 -12 -4 -6 10 6 16 4 16 -10 4 -16 -13 -16 -12 -4 11 10 21 10 23 -1 13 -17
-16 -37 -17 -21 -1 9 9 7 15 -6 25 -9 8 -11 12 -4 8 6 -3 12 -1 12 4 0 10 -14
15 -34 12 -5 -1 -6 5 -3 13 5 13 -17 31 -34 28 -3 -1 -4 11 -1 25 4 20 2 25
-10 21 -8 -4 -15 0 -15 8 0 7 5 10 11 7 6 -3 6 0 -1 7 -10 11 -15 11 -29 -1
-16 -13 -16 -12 -3 9 12 21 12 25 -4 37 -11 7 -24 12 -30 11 -7 -2 -9 -1 -4 1
14 9 7 33 -10 33 -15 0 -16 2 -3 10 13 8 12 10 -2 10 -10 0 -17 6 -15 13 1 6
-4 11 -10 10 -17 -4 -17 9 0 26 10 11 8 12 -10 7 -12 -4 -24 -2 -29 5 -5 8 -3
10 7 4 8 -4 4 2 -8 14 -13 12 -23 26 -23 32 0 6 -4 8 -9 4 -5 -3 -12 -1 -15 4
-4 5 -1 13 5 17 8 5 9 3 4 -6 -5 -9 -4 -11 4 -6 6 4 9 12 5 17 -3 5 -9 7 -13
5 -4 -3 -18 2 -30 10 -16 12 -19 19 -12 28 14 16 4 26 -17 19 -10 -4 -13 -2
-8 5 4 7 2 12 -4 12 -6 0 -8 5 -5 10 6 9 -8 15 -29 11 -5 -1 -3 5 4 14 11 13
10 15 -3 9 -12 -4 -15 -1 -12 16 3 18 2 20 -10 10 -11 -9 -13 -6 -11 15 3 22
1 23 -12 13 -13 -11 -15 -10 -9 4 4 12 0 18 -16 20 -15 2 -21 9 -19 21 2 12
-2 17 -14 15 -9 -2 -19 4 -21 12 -4 13 -3 13 6 0 8 -12 10 -11 8 7 0 12 -4 20
-8 17 -4 -2 -16 7 -27 21 -14 18 -22 22 -26 13 -4 -7 -4 -2 -2 11 4 18 2 21
-7 12 -6 -6 -16 -11 -22 -11 -5 0 -5 4 2 8 17 11 -25 72 -49 72 -10 0 -18 6
-18 14 0 7 -16 26 -35 40 -20 16 -32 32 -29 38 5 8 1 9 -10 5 -14 -6 -17 -3
-12 9 5 14 4 15 -8 5 -12 -10 -13 -8 -8 11 5 21 4 22 -13 8 -10 -8 -16 -10
-12 -3 4 6 1 13 -5 16 -10 3 -10 7 -1 19 10 12 10 15 -2 15 -8 0 -12 -4 -9 -9
3 -4 0 -8 -5 -8 -6 0 -11 5 -11 11 0 5 -4 7 -10 4 -6 -3 -7 1 -4 9 4 11 0 16
-10 16 -9 0 -16 7 -16 16 0 8 -4 12 -10 9 -5 -3 -10 1 -10 10 0 11 -5 15 -15
11 -8 -3 -14 -2 -14 2 3 18 -2 32 -11 32 -5 0 -7 -8 -4 -17 5 -14 4 -15 -4 -4
-6 8 -8 20 -5 27 2 6 -1 15 -8 20 -8 5 -10 3 -5 -7 4 -8 1 -6 -7 4 -16 20 -32
23 -21 5 5 -9 2 -9 -9 1 -9 7 -17 19 -17 25 0 6 5 4 11 -4 9 -13 10 -13 6 0
-2 8 -12 14 -21 14 -13 -2 -14 1 -5 12 10 12 9 13 -6 8 -14 -6 -16 -4 -10 6 6
10 4 12 -7 7 -9 -3 -23 2 -33 13 -10 11 -21 17 -25 15 -5 -3 -6 4 -3 15 3 12
0 20 -6 20 -7 0 -9 -6 -5 -12 3 -7 -10 4 -30 24 -21 21 -34 43 -30 49 4 7 -1
7 -16 -1 -20 -11 -22 -10 -17 4 5 11 1 16 -13 16 -11 0 -25 9 -32 19 -6 10
-16 18 -22 17 -6 -2 -8 -1 -3 1 4 3 7 9 7 14 0 6 -4 7 -10 4 -5 -3 -10 2 -10
12 0 15 -2 16 -10 3 -6 -10 -10 -11 -10 -2 0 6 -7 12 -16 12 -8 0 -13 4 -9 9
3 5 -4 13 -16 16 -17 6 -19 9 -8 16 9 6 10 9 2 9 -7 0 -17 -8 -23 -17 -9 -15
-10 -14 -4 6 5 20 3 23 -11 17 -16 -6 -16 -4 -4 11 9 11 10 14 2 9 -8 -4 -13
-2 -13 4 0 6 -5 8 -10 5 -6 -4 -7 -11 -4 -17 4 -7 2 -8 -4 -4 -6 4 -8 14 -5
23 4 11 3 14 -5 9 -8 -4 -12 0 -13 11 0 16 -1 16 -9 -2 -8 -19 -9 -19 -9 4 -1
17 -5 21 -17 17 -8 -3 -12 -2 -9 4 3 6 -2 10 -11 10 -10 0 -14 3 -11 7 7 7
-22 32 -38 32 -5 0 -2 -4 8 -10 9 -5 17 -14 17 -19 0 -6 -9 -2 -20 7 -11 10
-20 23 -20 30 0 7 -9 13 -20 13 -11 0 -20 5 -20 11 0 5 -4 8 -9 5 -5 -3 -14 1
-21 9 -7 8 -16 12 -21 9 -5 -3 -6 2 -3 10 6 16 -14 21 -56 17 -13 -2 -13 -1 0
8 8 5 19 7 25 3 5 -3 4 2 -4 11 -11 14 -16 15 -29 5 -13 -11 -15 -10 -9 5 4
11 3 16 -3 12 -6 -3 -10 0 -10 7 0 9 -3 9 -10 -2 -7 -11 -10 -11 -10 -2 0 8
-5 10 -12 6 -8 -5 -7 0 2 11 8 10 10 16 3 12 -7 -4 -17 0 -23 10 -10 16 -11
16 -6 1 3 -10 0 -20 -6 -24 -7 -5 -8 -3 -4 5 5 8 0 14 -13 18 -12 3 -21 12
-21 20 0 10 -7 14 -19 10 -15 -3 -18 -1 -14 11 4 9 2 13 -4 9 -16 -10 -43 3
-43 19 0 8 -5 14 -11 14 -5 0 -7 -6 -3 -12 6 -10 5 -10 -8 -1 -8 7 -19 9 -23
5 -5 -4 -5 -2 -1 5 3 6 -3 18 -14 26 -11 7 -18 17 -15 20 3 4 -1 3 -7 -3 -17
-14 -31 -12 -25 4 4 10 0 12 -14 9 -10 -3 -19 0 -19 6 0 6 5 11 12 11 6 0 8 3
5 6 -4 4 -14 1 -24 -7 -15 -12 -16 -12 -11 3 5 12 1 16 -18 13 -21 -2 -29 5
-25 27 0 4 -10 3 -23 -2 -19 -7 -28 -4 -43 13 -13 16 -14 18 -1 9 12 -10 18
-10 24 -1 4 7 3 9 -4 5 -6 -3 -13 -2 -16 3 -4 5 -17 8 -31 7 -13 -2 -22 1 -19
5 3 5 1 9 -5 9 -5 0 -12 -6 -15 -12 -3 -7 -4 1 -1 17 2 17 2 24 -1 18 -7 -16
-34 -17 -34 -2 0 6 -9 9 -20 6 -13 -3 -24 3 -35 20 -11 16 -23 23 -34 20 -11
-2 -23 4 -30 15 -6 10 -16 16 -21 13 -6 -3 -10 -1 -10 4 0 6 -3 10 -7 10 -21
-3 -33 2 -27 12 3 6 -6 3 -21 -7 -28 -18 -28 -18 -16 4 10 19 9 21 -6 15 -12
-5 -15 -2 -10 10 4 11 2 14 -8 10 -8 -3 -13 -8 -10 -12 2 -4 -2 -8 -10 -8 -8
0 -12 4 -10 8 3 4 -2 9 -9 12 -8 3 -17 1 -20 -6 -4 -7 -4 -2 -2 11 2 12 0 20
-4 17 -5 -3 -10 -2 -13 2 -2 5 -2 2 -1 -4 5 -19 -2 -16 -27 10 -20 20 -21 20
-15 2 5 -18 4 -18 -13 3 -13 15 -21 18 -24 10 -3 -8 -6 -6 -6 5 -1 10 -6 15
-11 12 -6 -4 -8 -12 -4 -18 3 -7 -9 4 -27 23 -18 19 -29 27 -26 18 4 -10 2
-18 -3 -18 -6 0 -10 8 -10 18 0 13 -2 14 -9 3 -7 -11 -10 -9 -16 8 -5 18 -9
20 -21 10 -8 -7 -14 -7 -14 -1 0 5 -13 9 -29 8 -23 -2 -27 1 -24 19 4 16 3 17
-6 5 -10 -14 -16 -7 -12 13 1 5 -3 6 -8 2 -6 -3 -8 -13 -5 -23 3 -9 -1 -7 -8
6 -10 16 -17 19 -25 11 -8 -8 -13 -7 -18 2 -6 8 -4 10 6 4 12 -8 12 -6 0 8
-15 18 -26 23 -16 7 9 -15 -14 -12 -30 4 -8 7 -26 12 -40 11 -22 -3 -24 -1
-14 11 16 19 4 18 -15 -2 -15 -14 -16 -14 -16 3 0 15 -2 16 -10 3 -9 -13 -10
-13 -10 0 0 13 -1 13 -10 0 -8 -13 -10 -13 -10 1 0 9 -7 20 -16 23 -15 6 -15
4 -3 -11 10 -14 8 -13 -10 2 -13 11 -26 20 -30 20 -3 0 -5 3 -4 7 1 3 -10 3
-25 -1 -32 -9 -52 -4 -52 14 0 18 -21 24 -44 12 -15 -7 -18 -6 -13 6 6 16 -16
18 -30 2 -4 -4 -2 -5 6 0 10 5 12 4 7 -4 -10 -15 -26 -5 -27 17 0 14 -2 13 -9
-3 -5 -11 -9 -14 -9 -7 -1 7 -5 10 -11 7 -5 -3 -10 -1 -10 6 0 8 -5 7 -17 -2
-9 -8 -14 -9 -11 -4 3 6 0 16 -8 23 -11 10 -14 10 -14 0 0 -10 -2 -10 -9 1 -6
9 -11 10 -15 2 -4 -6 -13 -11 -19 -11 -7 0 -6 4 3 11 12 9 10 10 -8 6 -20 -5
-21 -3 -10 10 12 14 11 15 -9 5 -26 -14 -36 -15 -29 -4 3 5 -1 9 -9 9 -8 0
-12 -4 -9 -8 2 -4 -1 -11 -7 -15 -8 -4 -9 -3 -5 4 3 6 -2 16 -13 21 -14 8 -21
8 -24 -2 -4 -7 -6 -6 -6 5 -1 17 -16 19 -40 4 -11 -7 -13 -5 -8 8 6 14 3 15
-14 6 -14 -8 -24 -8 -33 -1 -7 6 -16 8 -19 4 -4 -3 -7 -1 -7 4 0 6 -8 10 -17
8 -10 -1 -23 2 -30 7 -7 5 -17 7 -22 4 -5 -4 -13 -2 -16 4 -5 8 -11 7 -21 -1
-11 -9 -14 -9 -14 1 0 7 -7 10 -16 6 -8 -3 -12 -2 -9 4 3 6 1 10 -4 10 -6 0
-11 -8 -11 -17 0 -15 -2 -14 -15 3 -8 10 -15 14 -15 7 0 -7 -7 -10 -15 -7 -13
5 -13 9 -3 23 12 14 11 15 -5 2 -9 -8 -20 -11 -24 -8 -3 4 -13 1 -21 -6 -13
-9 -14 -9 -8 1 4 7 1 12 -9 12 -9 0 -14 -4 -11 -8 2 -4 -4 -8 -14 -8 -14 0
-16 4 -9 12 7 8 6 15 -2 20 -8 4 -9 3 -5 -4 9 -15 -13 -16 -48 -2 -19 7 -26 6
-26 -2 0 -7 -7 -3 -16 8 -8 10 -13 14 -10 7 5 -9 -10 -10 -56 -6 -35 2 -65 7
-67 9 -2 2 -10 -1 -18 -8 -11 -8 -12 -7 -7 6 3 9 1 16 -5 16 -6 0 -11 -5 -11
-11 0 -6 -7 -3 -16 6 -12 12 -19 13 -24 5 -5 -8 -10 -9 -14 -2 -3 6 -18 9 -33
7 -16 -2 -33 4 -40 14 -12 15 -13 14 -7 -1 3 -10 3 -18 -2 -18 -4 0 -17 8 -28
18 -20 16 -20 16 -7 0 13 -17 2 -26 -13 -11 -9 9 -37 13 -32 4 3 -4 -4 -7 -14
-7 -10 0 -16 4 -14 8 8 12 -10 10 -23 -3 -8 -8 -13 -7 -18 2 -6 8 -4 10 5 4 9
-5 11 -4 6 4 -6 9 -14 8 -33 -4 -14 -10 -23 -13 -19 -7 3 5 -1 13 -10 16 -8 3
-12 2 -9 -4 3 -6 1 -10 -4 -10 -6 0 -11 6 -11 13 0 9 -3 8 -9 -2 -6 -9 -11
-10 -15 -3 -9 15 -38 3 -29 -12 3 -6 -3 -2 -15 8 -17 14 -22 16 -22 5 0 -12
-2 -12 -9 0 -7 11 -9 11 -14 0 -3 -9 -6 -7 -6 6 -1 16 -3 17 -10 6 -5 -8 -23
-15 -39 -15 -23 -1 -28 2 -20 12 15 17 2 15 -16 -4 -15 -14 -16 -14 -17 3 0
16 -1 16 -9 -2 -5 -11 -9 -15 -9 -8 -1 6 -10 9 -23 5 -16 -4 -19 -2 -14 9 5
10 3 9 -6 -1 -14 -17 -43 -15 -68 3 -12 9 -13 9 -2 -3z m652 -36 c0 -8 -19
-13 -24 -6 -3 5 1 9 9 9 8 0 15 -2 15 -3z m1109 -207 c0 -9 -2 -8 -6 1 -2 6
-10 9 -15 6 -7 -4 -8 -2 -4 5 9 13 26 5 25 -12z m265 -75 c3 -5 -1 -9 -9 -9
-8 0 -12 4 -9 9 3 4 7 8 9 8 2 0 6 -4 9 -8z m670 -278 c3 -8 2 -12 -4 -9 -6 3
-10 10 -10 16 0 14 7 11 14 -7z m-5454 -213 c0 -5 -7 -12 -16 -15 -14 -5 -15
-4 -4 9 14 17 20 19 20 6z m-457 -306 c-3 -9 -8 -14 -10 -11 -3 3 -2 9 2 15 9
16 15 13 8 -4z m7666 -769 c-2 -2 -13 8 -23 22 l-19 27 24 -22 c12 -12 21 -24
18 -27z m-8972 -514 c-10 -10 -15 -21 -12 -24 3 -2 -2 -5 -10 -5 -12 0 -10 6
7 24 25 27 39 32 15 5z m-127 -196 c0 -3 -4 -8 -10 -11 -5 -3 -10 -1 -10 4 0
6 5 11 10 11 6 0 10 -2 10 -4z m-163 -251 c0 -8 -4 -12 -9 -9 -5 3 -6 10 -3
15 9 13 12 11 12 -6z m-162 -275 c3 -5 1 -10 -4 -10 -6 0 -11 5 -11 10 0 6 2
10 4 10 3 0 8 -4 11 -10z m10350 -69 c3 -5 2 -12 -3 -15 -5 -3 -9 1 -9 9 0 17
3 19 12 6z m95 -185 c0 -3 -4 -8 -10 -11 -5 -3 -10 -1 -10 4 0 6 5 11 10 11 6
0 10 -2 10 -4z m-10667 -220 c4 -10 1 -13 -8 -9 -8 3 -12 9 -9 14 7 12 11 11
17 -5z m-193 -550 c0 -2 -7 -7 -16 -10 -8 -3 -12 -2 -9 4 6 10 25 14 25 6z
m-123 -461 c0 -8 -4 -12 -9 -9 -4 3 -8 9 -8 15 0 5 4 9 8 9 5 0 9 -7 9 -15z
m-62 -325 c3 -5 -1 -10 -10 -10 -9 0 -13 5 -10 10 3 6 8 10 10 10 2 0 7 -4 10
-10z m-65 -1150 c0 -5 -5 -10 -11 -10 -5 0 -7 5 -4 10 3 6 8 10 11 10 2 0 4
-4 4 -10z m47 -532 c2 -17 0 -19 -7 -8 -5 8 -6 18 -4 22 8 12 10 10 11 -14z
m487 -1694 c5 -14 4 -15 -9 -4 -17 14 -19 20 -6 20 5 0 12 -7 15 -16z m10109
-809 c-3 -9 -8 -14 -10 -11 -3 3 -2 9 2 15 9 16 15 13 8 -4z m-9534 -165 c11
-24 11 -24 -3 -6 -9 11 -16 24 -16 30 0 12 5 7 19 -24z m9311 -164 c0 -3 -4
-8 -10 -11 -5 -3 -10 -1 -10 4 0 6 5 11 10 11 6 0 10 -2 10 -4z m-310 -356 c0
-5 -4 -10 -10 -10 -5 0 -10 5 -10 10 0 6 5 10 10 10 6 0 10 -4 10 -10z m-8365
-208 c-3 -3 -11 0 -18 7 -9 10 -8 11 6 5 10 -3 15 -9 12 -12z m7845 -292 c0
-5 -5 -10 -11 -10 -5 0 -7 5 -4 10 3 6 8 10 11 10 2 0 4 -4 4 -10z m-755 -549
c-3 -6 -11 -11 -17 -11 -6 0 -6 6 2 15 14 17 26 13 15 -4z m-5990 -9 c-3 -3
-11 0 -18 7 -9 10 -8 11 6 5 10 -3 15 -9 12 -12z m5720 -131 c3 -5 2 -12 -3
-15 -5 -3 -9 1 -9 9 0 17 3 19 12 6z m-5080 -209 c-3 -3 -11 0 -18 7 -9 10 -8
11 6 5 10 -3 15 -9 12 -12z m4580 -22 c3 -5 1 -10 -4 -10 -6 0 -11 5 -11 10 0
6 2 10 4 10 3 0 8 -4 11 -10z m-183 -92 c-7 -7 -12 -8 -12 -2 0 14 12 26 19
19 2 -3 -1 -11 -7 -17z m-3632 -148 c0 -5 -2 -10 -4 -10 -3 0 -8 5 -11 10 -3
6 -1 10 4 10 6 0 11 -4 11 -10z m1940 -200 c0 -5 -5 -10 -11 -10 -5 0 -7 5 -4
10 3 6 8 10 11 10 2 0 4 -4 4 -10z"/>
<path d="M5910 12199 c0 -5 5 -7 10 -4 6 3 10 8 10 11 0 2 -4 4 -10 4 -5 0
-10 -5 -10 -11z"/>
<path d="M4313 11835 c0 -8 4 -12 9 -9 5 3 6 10 3 15 -9 13 -12 11 -12 -6z"/>
<path d="M4147 11765 c3 -8 9 -12 14 -9 12 7 11 11 -5 17 -10 4 -13 1 -9 -8z"/>
<path d="M9360 11411 c0 -6 4 -13 10 -16 6 -3 7 1 4 9 -7 18 -14 21 -14 7z"/>
<path d="M9630 11237 c0 -2 6 -10 14 -16 11 -9 16 -9 22 1 4 7 4 10 -1 6 -4
-4 -14 -3 -22 3 -7 6 -13 9 -13 6z"/>
<path d="M10190 10814 c0 -6 8 -18 18 -27 15 -14 19 -15 19 -2 0 8 -4 12 -8 9
-4 -2 -12 4 -18 13 -6 10 -11 13 -11 7z"/>
<path d="M10566 10458 c3 -5 10 -6 15 -3 13 9 11 12 -6 12 -8 0 -12 -4 -9 -9z"/>
<path d="M10947 10019 c7 -7 15 -10 18 -7 3 3 -2 9 -12 12 -14 6 -15 5 -6 -5z"/>
<path d="M11200 9691 c0 -6 4 -13 10 -16 6 -3 7 1 4 9 -7 18 -14 21 -14 7z"/>
<path d="M11400 9359 c0 -5 5 -7 10 -4 6 3 10 8 10 11 0 2 -4 4 -10 4 -5 0
-10 -5 -10 -11z"/>
<path d="M1105 8871 c4 -8 2 -17 -6 -22 -9 -6 -10 -9 -2 -9 19 0 27 21 13 33
-10 9 -11 9 -5 -2z"/>
<path d="M11793 8613 c-10 -3 -10 -9 0 -24 6 -10 16 -19 21 -19 4 0 3 7 -4 15
-6 8 -9 19 -5 25 7 11 6 11 -12 3z"/>
<path d="M956 8552 c-3 -5 1 -9 9 -9 8 0 12 4 9 9 -3 4 -7 8 -9 8 -2 0 -6 -4
-9 -8z"/>
<path d="M770 8001 c0 -6 4 -13 10 -16 6 -3 7 1 4 9 -7 18 -14 21 -14 7z"/>
<path d="M740 7946 c0 -2 8 -10 18 -17 15 -13 16 -12 3 4 -13 16 -21 21 -21
13z"/>
<path d="M687 7659 c7 -7 15 -10 18 -7 3 3 -2 9 -12 12 -14 6 -15 5 -6 -5z"/>
<path d="M650 7500 c0 -5 4 -10 9 -10 6 0 13 5 16 10 3 6 -1 10 -9 10 -9 0
-16 -4 -16 -10z"/>
<path d="M548 6373 c7 -3 16 -2 19 1 4 3 -2 6 -13 5 -11 0 -14 -3 -6 -6z"/>
<path d="M12236 6362 c-3 -5 1 -9 9 -9 8 0 12 4 9 9 -3 4 -7 8 -9 8 -2 0 -6
-4 -9 -8z"/>
<path d="M565 5920 c3 -5 8 -10 11 -10 2 0 4 5 4 10 0 6 -5 10 -11 10 -5 0 -7
-4 -4 -10z"/>
<path d="M573 5805 c0 -8 4 -12 9 -9 5 3 6 10 3 15 -9 13 -12 11 -12 -6z"/>
<path d="M613 5525 c0 -8 4 -12 9 -9 5 3 6 10 3 15 -9 13 -12 11 -12 -6z"/>
<path d="M12115 5200 c-3 -5 -1 -10 4 -10 6 0 11 5 11 10 0 6 -2 10 -4 10 -3
0 -8 -4 -11 -10z"/>
<path d="M683 5105 c0 -8 4 -12 9 -9 5 3 6 10 3 15 -9 13 -12 11 -12 -6z"/>
<path d="M810 4640 c0 -5 5 -10 11 -10 5 0 7 5 4 10 -3 6 -8 10 -11 10 -2 0
-4 -4 -4 -10z"/>
<path d="M916 4288 c3 -5 10 -6 15 -3 13 9 11 12 -6 12 -8 0 -12 -4 -9 -9z"/>
<path d="M1176 3732 c-3 -5 1 -9 9 -9 8 0 12 4 9 9 -3 4 -7 8 -9 8 -2 0 -6 -4
-9 -8z"/>
<path d="M1206 3663 c-6 -14 -5 -15 5 -6 7 7 10 15 7 18 -3 3 -9 -2 -12 -12z"/>
<path d="M10225 1970 c-3 -5 -1 -10 4 -10 6 0 11 5 11 10 0 6 -2 10 -4 10 -3
0 -8 -4 -11 -10z"/>
<path d="M9615 1500 c-3 -5 -1 -10 4 -10 6 0 11 5 11 10 0 6 -2 10 -4 10 -3 0
-8 -4 -11 -10z"/>
<path d="M3230 1464 c0 -8 5 -12 10 -9 6 4 8 11 5 16 -9 14 -15 11 -15 -7z"/>
<path d="M9465 1410 c-3 -5 -1 -10 4 -10 6 0 11 5 11 10 0 6 -2 10 -4 10 -3 0
-8 -4 -11 -10z"/>
<path d="M3791 1143 c7 -12 15 -20 18 -17 3 2 -3 12 -13 22 -17 16 -18 16 -5
-5z"/>
<path d="M4693 785 c0 -8 4 -12 9 -9 5 3 6 10 3 15 -9 13 -12 11 -12 -6z"/>
<path d="M4976 707 c3 -10 9 -15 12 -12 3 3 0 11 -7 18 -10 9 -11 8 -5 -6z"/>
<path d="M7630 659 c0 -5 5 -7 10 -4 6 3 10 8 10 11 0 2 -4 4 -10 4 -5 0 -10
-5 -10 -11z"/>
<path d="M5340 630 c8 -5 20 -10 25 -10 6 0 3 5 -5 10 -8 5 -19 10 -25 10 -5
0 -3 -5 5 -10z"/>
<path d="M6890 556 c0 -2 8 -10 18 -17 15 -13 16 -12 3 4 -13 16 -21 21 -21
13z"/>
<path d="M6656 542 c-3 -5 1 -9 9 -9 8 0 12 4 9 9 -3 4 -7 8 -9 8 -2 0 -6 -4
-9 -8z"/>
</g>
</svg>
